<svg xmlns="http://www.w3.org/2000/svg" width="208.1" height="47.4" viewBox="0 0 208.1 47.4"><style>.st0{fill:#8b8c8c}.st1{fill:#39bee7}.st2{fill:#fff}.st3{fill:#e61948}.st4{fill:#6e6e6d}</style><path class="st0" d="M27.9 18.9s4.3-6.3 10.8-2.2c0 0-7.6-22.8-16.5-6.9.1-.1 6.6-4.4 5.7 9.1z"/><path class="st1" d="M46 40.8c0-11.1-6-20-6-20-2.6-3.6-5.6-3.6-5.6-3.6-3.3-.4-5.7 3.4-5.7 3.4-1.9 2.3-3.7 2.6-4.8 2.6H22c-1.1.1-2.9-.3-4.8-2.6 0 0-2.4-3.8-5.7-3.4 0 0-3 0-5.6 3.6 0 0-1 1.5-2.2 4-1.6 3.7-3.7 9.4-3.7 16 0 0-.4 11.1 9 1.1 0 0 7-9 14-9s14 9 14 9c5.8 6.1 7.9 4.3 8.6 2 .5-1.4.4-3.1.4-3.1z"/><path class="st2" d="M10.1 22.5h2.7v8.7h-2.7z"/><path class="st3" d="M30.7 2.9C27.3.4 15.4-6.3 7.3 16.6c0 0 2.5-1.9 5.8-1.2 1.6.3 3.4 1.3 5.2 3.5 0 0 2.9-20.5 13.4-15.3-.1 0-.4-.3-1-.7z"/><path class="st2" d="M7.1 25.5h8.7v2.7H7.1z"/><circle class="st2" cx="34.3" cy="23.5" r="1.7"/><circle class="st2" cx="34.3" cy="30.1" r="1.7"/><circle class="st2" cx="31" cy="26.8" r="1.7"/><circle class="st2" cx="37.6" cy="26.8" r="1.7"/><path class="st1" d="M63.2 31.7c-2.3 0-3.9-.2-5.3-.5-.3-.1-.6-.3-.6-.6v-2.2c0-.3.3-.6.6-.6h.1c1.2.1 4.2.3 5.3.3 2.7 0 3.5-1 3.5-2.7 0-1.2-.6-1.8-2.6-2.9l-4-2.4c-2.8-1.6-3.5-3.4-3.5-5.5 0-3.3 1.9-5.7 7.5-5.7 2 0 4.7.3 5.8.5.3.1.5.3.5.6v2.2c0 .3-.2.5-.5.5h-.1c-2-.2-4-.3-5.9-.3-2.2 0-3.1.8-3.1 2.1 0 1 .5 1.6 2.5 2.7l3.6 2c3.3 1.8 4.2 3.8 4.2 6.1-.1 3.1-2 6.4-8 6.4zm25.3-19.1h-5.3v18.2c0 .3-.3.6-.6.6h-3c-.3 0-.6-.3-.6-.6V12.6h-5.3c-.3 0-.6-.2-.6-.5V9.7c0-.3.3-.6.6-.6h14.7c.3 0 .6.2.6.6v2.4c.1.3-.2.5-.5.5zm16.2 18.7c-1 .1-2.1.4-5.7.4-3.9 0-6.9-1.1-6.9-6.1V15.1c0-5.1 3-6.1 6.9-6.1 3.6 0 4.7.3 5.7.4.4.1.6.2.6.6v1.9c0 .3-.3.6-.6.6h-6.1c-1.7 0-2.4.6-2.4 2.6v3.2h8.1c.3 0 .6.3.6.6v2.2c0 .3-.3.6-.6.6h-8.1v3.9c0 2 .6 2.6 2.4 2.6h6.1c.3 0 .6.3.6.6v1.9c0 .3-.1.5-.6.6zm20.7.1h-3.2c-.3 0-.5-.2-.6-.5l-1.4-5.7h-6.9l-1.4 5.7c-.1.3-.3.5-.6.5h-3.2c-.3 0-.5-.2-.5-.5v-.1l4.9-18.8c.7-2.8 2.9-3.1 4.2-3.1s3.4.3 4.2 3.1l4.9 18.8v.1c.1.3-.1.5-.4.5zm-8.1-18.5c-.1-.4-.2-.5-.5-.5s-.4.1-.5.5l-2.2 8.9h5.3l-2.1-8.9zm30.2 18.5h-3c-.3 0-.5-.3-.5-.6V16.9c0-.2 0-.3-.1-.3 0 0-.1.1-.1.2l-2.9 5.7c-.2.3-.6.5-1 .5h-3c-.4 0-.8-.2-1-.5l-2.9-5.7c-.1-.1-.1-.2-.1-.2-.1 0-.1.1-.1.3v13.9c0 .3-.2.6-.5.6h-3c-.3 0-.5-.1-.5-.4V10.3c0-.7.5-1.2 1.2-1.2h2.5c.5 0 .9.3 1.1.7L138 19c.1.3.2.4.3.4s.2-.1.3-.4l4.5-9.2c.2-.4.6-.7 1.1-.7h2.5c.7 0 1.2.5 1.2 1.2V31c.1.3-.1.4-.4.4zm11.6.3c-2.4 0-4.3-.1-5.2-.3-1-.2-1.4-.5-1.4-1.6v-19c0-1.1.4-1.5 1.4-1.6.8-.1 2.7-.3 5-.3 5.4 0 9.2 1.6 9.2 6.1v.6c0 2-.9 3.7-2.8 4.5 1.8.8 2.9 2.3 2.9 4.6v.5c0 4.8-3.5 6.5-9.1 6.5zm4.9-16.5c0-2.1-1.4-2.9-5.2-2.9-.7 0-1.6 0-2.2.1v6.1h3.8c2.8 0 3.6-1.3 3.6-2.9v-.4zm.2 9.5c0-1.6-.9-3.2-3.7-3.2h-3.8v6.6c.7 0 1.8.1 2.5.1 3.8 0 5-1 5-3.1v-.4zm15.9 7c-4.8 0-8.3-2.1-8.3-8.5V9.7c0-.3.3-.6.6-.6h3c.3 0 .6.2.6.6v13.5c0 3.4.8 5 4.1 5s4.1-1.6 4.1-5V9.7c0-.3.3-.6.6-.6h3c.3 0 .6.2.6.6v13.5c-.1 6.4-3.5 8.5-8.3 8.5zm28-21.9l-4.6 10.4c-.6 1.3-1.2 1.9-1.8 2.2v8.4c0 .3-.2.6-.6.6h-3c-.3 0-.6-.3-.6-.6v-8.4c-.7-.3-1.3-.9-1.8-2.2l-4.5-10.4c0-.1-.1-.2-.1-.2 0-.2.2-.4.5-.4h3.3c.3 0 .5.2.6.5l3.6 8.9c.2.5.4.6.5.6.1 0 .3-.1.5-.6l3.6-8.9c.1-.2.3-.5.6-.5h3.3c.3 0 .5.2.5.4v.2z"/><path class="st4" d="M64.3 44.9c0 .1-.1.2-.2.2H64c-.1 0-.2-.1-.2-.2v-5.7c0-.1 0-.2-.1-.2s-.1.1-.2.2L62 41.8c-.2.4-.4.4-.6.4-.2 0-.4 0-.6-.4l-1.6-2.7c-.1-.1-.1-.1-.2-.1s-.1.1-.1.2v5.7c0 .1-.1.2-.2.2h-.1c-.1 0-.2-.1-.2-.2v-5.7c0-.5.3-.6.6-.6.2 0 .4.1.6.4l1.5 2.7c.1.1.1.2.2.2s.1-.1.2-.2L63 39c.2-.3.4-.4.6-.4.3 0 .6.1.6.6l.1 5.7zm5.6.1c-.2 0-.3-.1-.3-.2v-.3c-.6.3-1.3.6-2 .6-.9 0-1.8-.4-1.8-1.9V43c0-1.2.8-1.9 3-1.9h.9v-.4c0-1.3-.4-1.7-1.5-1.7-.8 0-1.1.1-1.7.1h-.1c-.1 0-.2-.1-.2-.2v-.1c0-.1.1-.2.3-.2.5-.1.9-.1 1.7-.1 1.6 0 2 .9 2 2.2v4.1c0 .1-.1.2-.3.2zm-.3-3.4h-.9c-1.8 0-2.4.4-2.4 1.4v.2c0 1.1.6 1.5 1.3 1.5.7 0 1.3-.2 2.1-.6l-.1-2.5zm3.5-2.5c-.6 0-.7.2-.7.7v5c0 .1-.1.2-.2.2h-.1c-.1 0-.2-.1-.2-.2v-5c0-1 .6-1.2 1.3-1.2h1.6c.1 0 .2.1.2.2v.1c0 .1-.1.2-.2.2h-1.7zm7.1 5.9c-.2 0-.3-.1-.3-.2v-.3c-.6.3-1.3.6-2 .6-.9 0-1.8-.4-1.8-1.9V43c0-1.2.8-1.9 3-1.9h.9v-.4c0-1.3-.4-1.7-1.5-1.7-.8 0-1.1.1-1.7.1h-.1c-.1 0-.2-.1-.2-.2v-.1c0-.1.1-.2.3-.2.5-.1.9-.1 1.7-.1 1.6 0 2 .9 2 2.2v4.1c0 .1-.1.2-.3.2zm-.3-3.4H79c-1.8 0-2.4.4-2.4 1.4v.2c0 1.1.6 1.5 1.3 1.5.7 0 1.3-.2 2.1-.6l-.1-2.5zm4.7-.2c1.2 0 1.5-.6 1.5-1.3V40c0-.9-.5-1.2-1.9-1.2-.6 0-1.1.1-1.6.1-.2 0-.2-.1-.2-.2v-.1c0-.1 0-.2.2-.2.3-.1 1-.1 1.6-.1 1.5 0 2.4.4 2.4 1.6v.1c0 .6-.3 1.2-.9 1.5.8.4.9 1.1.9 1.5v.1c0 1.3-.9 1.9-2.4 1.9-.6 0-1.3-.1-1.6-.1-.2 0-.2-.1-.2-.2v-.1c0-.1 0-.2.2-.2.6.1 1 .1 1.6.1 1.3 0 1.9-.4 1.9-1.4V43c0-.8-.4-1.3-1.5-1.3h-2c-.1 0-.2-.1-.2-.2s.1-.2.2-.2l2 .1zm7.1-2.4c.2-.4.3-.4.6-.4s.5.2.5.7v5.5c0 .2-.1.2-.2.2h-.1c-.1 0-.2-.1-.2-.2v-5.5c0-.1-.1-.1-.1 0l-2.8 5.3c-.2.3-.4.4-.7.4-.3 0-.5-.2-.5-.7v-5.5c0-.2.1-.2.2-.2h.1c.1 0 .2.1.2.2v5.5c0 .1.1.1.1 0l2.9-5.3zm3.3 2.8v3c0 .1-.1.2-.2.2h-.1c-.1 0-.2-.1-.2-.2v-6c0-.1.1-.2.2-.2h.1c.1 0 .2.1.2.2v2.5h3.5v-2.5c0-.1.1-.2.2-.2h.1c.1 0 .2.1.2.2v6c0 .1-.1.2-.2.2h-.1c-.1 0-.2-.1-.2-.2v-3H95zm12.4-3c0-.1.1-.2.2-.2h.1c.1 0 .2.1.2.2v5c0 .3-.1.5-.2.7h.7c.3 0 .4.1.4.4v1.5c0 .1-.1.2-.2.2h-.1c-.1 0-.2-.1-.2-.2V45h-3.8c-.6 0-1.3-.2-1.3-1.2v-5c0-.1.1-.2.2-.2h.1c.1 0 .2.1.2.2v5c0 .5.2.7.7.7h2.1c.6 0 .7-.2.7-.7l.2-5zm5.7.2c.2-.4.3-.4.6-.4s.5.2.5.7v5.5c0 .2-.1.2-.2.2h-.1c-.1 0-.2-.1-.2-.2v-5.5c0-.1-.1-.1-.1 0l-2.8 5.3c-.2.3-.3.4-.6.4s-.5-.2-.5-.7v-5.5c0-.2.1-.2.2-.2h.1c.1 0 .2.1.2.2v5.5c0 .1.1.1.1 0l2.8-5.3zm2.5 2.4c0-1.7.5-2.9 2.4-2.9.5 0 .9.1 1.4.2v-2.3c0-.1.1-.2.2-.2h.1c.1 0 .2.1.2.2v2.3c.4-.1.8-.2 1.4-.2 1.8 0 2.4 1.2 2.4 2.9v.8c0 1.9-.6 2.9-2.4 2.9-.5 0-.9-.1-1.4-.2v2.2c0 .1-.1.2-.2.2h-.1c-.1 0-.2-.1-.2-.2v-2.2c-.5.1-.9.2-1.4.2-1.7 0-2.4-1-2.4-2.9v-.8zm.6.8c0 1.6.4 2.4 1.8 2.4.5 0 .9-.1 1.4-.2v-5.3c-.4-.1-.8-.2-1.4-.2-1.5 0-1.8.9-1.8 2.4v.9zm6.9-.8c0-1.6-.3-2.4-1.8-2.4-.6 0-.9.1-1.4.2v5.3c.5.1.9.2 1.4.2 1.4 0 1.8-.8 1.8-2.4v-.9zm4.2 3.7c-.5 0-1.2-.1-1.7-.2v2.2c0 .1-.1.2-.2.2h-.1c-.1 0-.2-.1-.2-.2V39c0-.1 0-.2.2-.2.5-.1 1.3-.2 2-.2 1.7 0 2.3 1.2 2.3 2.9v.8c.1 1.8-.7 2.8-2.3 2.8zm1.8-3.7c0-1.6-.5-2.4-1.8-2.4-.6 0-1.2.1-1.7.2v5.3c.5.1 1.2.2 1.7.2 1.3 0 1.8-.8 1.8-2.4v-.9zm4.4 3.7c-1.6 0-2.5-1.1-2.5-2.9v-.8c0-1.8.8-2.9 2.5-2.9s2.5 1.1 2.5 2.9v.8c-.1 1.8-.9 2.9-2.5 2.9zm1.9-3.7c0-1.5-.5-2.4-1.9-2.4s-1.9.9-1.9 2.4v.8c0 1.5.5 2.4 1.9 2.4s1.9-.9 1.9-2.4v-.8zm5.7.3c.8.3 1 1 1 1.5v.1c0 1.4-1.2 1.9-2.9 1.9-.5 0-1.2 0-1.6-.1-.1 0-.2 0-.2-.1v-6.2c0-.1.1-.1.1-.1.4-.1 1.1-.1 1.7-.1 1.4 0 2.8.2 2.8 1.6v.1c.1.5-.2 1.1-.9 1.4zm.4-1.6c0-1-.9-1.1-2.3-1.1h-1.3v2.4h1.7c.9 0 1.9 0 1.9-1.3zm.1 3c0-1.2-1.1-1.2-1.9-1.2H138v2.7h1.3c1.6.1 2.3-.4 2.3-1.5zm2-4.3c0-.1.1-.2.2-.2h.1c.2 0 .2.1.2.2V41h1.3c1.7 0 2.9.5 2.9 2v.2c0 1.5-1.2 2-2.9 2-.5 0-1.2 0-1.6-.1-.1 0-.2 0-.2-.1v-6.2zm.6 5.8h1.3c1.7 0 2.4-.4 2.4-1.5v-.2c0-1.1-.7-1.5-2.4-1.5h-1.3v3.2zm6 .4h-.1c-.1 0-.2-.1-.2-.2v-6c0-.1.1-.2.2-.2h.1c.1 0 .2.1.2.2v6c0 .1-.1.2-.2.2zm6.1 0h-.1c-.1 0-.2 0-.2-.1l-2-2.8-2 2.8c0 .1-.1.1-.1.1h-.2c-.1 0-.2-.1-.2-.1 0-.1 0-.1.1-.2l2.1-3-2-2.9-.1-.1c0-.1.1-.2.2-.2h.1c.1 0 .2.1.2.1l1.9 2.6 1.8-2.6c0-.1.2-.1.2-.1h.1c.1 0 .2.1.2.1 0 .1 0 .1-.1.2l-2 2.8 2.1 3v.1c.2.2.2.3 0 .3zm8.6-6.2v.1c0 .1-.1.2-.2.2h-2v5.7c0 .1-.1.2-.2.2h-.1c-.1 0-.2-.1-.2-.2v-5.7h-2c-.1 0-.2-.1-.2-.2v-.1c0-.1.1-.2.2-.2h4.4c.2 0 .3.1.3.2zm3.6 6.3c-1.6 0-2.5-1.1-2.5-2.9v-.8c0-1.8.8-2.9 2.5-2.9s2.5 1.1 2.5 2.9v.8c0 1.8-.8 2.9-2.5 2.9zm2-3.7c0-1.5-.5-2.4-1.9-2.4s-1.9.9-1.9 2.4v.8c0 1.5.5 2.4 1.9 2.4s1.9-.9 1.9-2.4v-.8zm5.7.3c.8.3 1 1 1 1.5v.1c0 1.4-1.2 1.9-2.9 1.9-.5 0-1.2 0-1.6-.1-.1 0-.2 0-.2-.1v-6.2c0-.1 0-.1.1-.1.4-.1 1.1-.1 1.7-.1 1.4 0 2.8.2 2.8 1.6v.1c0 .5-.3 1.1-.9 1.4zm.4-1.6c0-1-1-1.1-2.3-1.1H173v2.4h1.7c.9 0 1.9 0 1.9-1.3zm.1 3c0-1.2-1.1-1.2-1.9-1.2H173v2.7h1.3c1.7.1 2.4-.4 2.4-1.5zm5.9 1.9c-.2 0-.3-.1-.3-.2v-.3c-.6.3-1.3.6-2 .6-.9 0-1.8-.4-1.8-1.9V43c0-1.2.8-1.9 3-1.9h.9v-.4c0-1.3-.4-1.7-1.5-1.7-.8 0-1.1.1-1.7.1-.1 0-.2-.1-.2-.2v-.1c0-.1.1-.2.3-.2.5-.1.9-.1 1.7-.1 1.6 0 2 .9 2 2.2v4.1c-.1.1-.2.2-.4.2zm-.2-3.4h-.9c-1.8 0-2.4.4-2.4 1.4v.2c0 1.1.6 1.5 1.3 1.5.7 0 1.3-.2 2-.6v-2.5zm4.4 3.5c-.5 0-1.2-.1-1.7-.2v2.2c0 .1-.1.2-.2.2h-.1c-.1 0-.2-.1-.2-.2V39c0-.1 0-.2.2-.2.5-.1 1.3-.2 2-.2 1.7 0 2.4 1.2 2.4 2.9v.8c-.1 1.8-.9 2.8-2.4 2.8zm1.8-3.7c0-1.6-.5-2.4-1.8-2.4-.6 0-1.2.1-1.7.2v5.3c.5.1 1.2.2 1.7.2 1.3 0 1.8-.8 1.8-2.4v-.9zm4.3 3.7c-1.6 0-2.5-1.1-2.5-2.9v-.8c0-1.8.8-2.9 2.5-2.9s2.5 1.1 2.5 2.9v.8c0 1.8-.9 2.9-2.5 2.9zm1.9-3.7c0-1.5-.5-2.4-1.9-2.4s-1.9.9-1.9 2.4v.8c0 1.5.5 2.4 1.9 2.4s1.9-.9 1.9-2.4v-.8zm5.7.3c.8.3 1 1 1 1.5v.1c0 1.4-1.2 1.9-2.9 1.9-.5 0-1.2 0-1.6-.1-.1 0-.2 0-.2-.1v-6.2c0-.1 0-.1.1-.1.4-.1 1.1-.1 1.7-.1 1.4 0 2.8.2 2.8 1.6v.1c.1.5-.2 1.1-.9 1.4zm.5-1.6c0-1-1-1.1-2.3-1.1h-1.3v2.4h1.7c.9 0 1.9 0 1.9-1.3zm0 3c0-1.2-1.1-1.2-1.9-1.2h-1.7v2.7h1.3c1.6.1 2.3-.4 2.3-1.5z"/></svg>